<mxfile host="Electron" agent="Mozilla/5.0 (Windows NT 10.0; Win64; x64) AppleWebKit/537.36 (KHTML, like Gecko) draw.io/28.2.5 Chrome/138.0.7204.251 Electron/37.6.1 Safari/537.36" version="28.2.5">
  <diagram name="Page-1" id="Q953uhSveH-FIFmPOnQ1">
    <mxGraphModel dx="1722" dy="537" grid="1" gridSize="10" guides="1" tooltips="1" connect="1" arrows="1" fold="1" page="1" pageScale="1" pageWidth="850" pageHeight="1100" math="0" shadow="0">
      <root>
        <mxCell id="0" />
        <mxCell id="1" parent="0" />
        <mxCell id="DeCXEWq8_Zpb-NYJ_XyL-3" value="&lt;font style=&quot;font-size: 24px;&quot;&gt;Data Flow Diagram&lt;/font&gt;" style="text;html=1;align=center;verticalAlign=middle;resizable=0;points=[];autosize=1;strokeColor=none;fillColor=none;fontStyle=1" parent="1" vertex="1">
          <mxGeometry x="-840" y="30" width="230" height="40" as="geometry" />
        </mxCell>
        <mxCell id="DeCXEWq8_Zpb-NYJ_XyL-4" value="" style="rounded=0;whiteSpace=wrap;html=1;fillColor=none;" parent="1" vertex="1">
          <mxGeometry x="-750" y="150" width="120" height="360" as="geometry" />
        </mxCell>
        <mxCell id="DeCXEWq8_Zpb-NYJ_XyL-5" value="&lt;font style=&quot;font-size: 15px;&quot;&gt;Sources&lt;/font&gt;" style="rounded=1;whiteSpace=wrap;html=1;fillColor=default;strokeColor=none;" parent="1" vertex="1">
          <mxGeometry x="-735" y="130" width="90" height="30" as="geometry" />
        </mxCell>
        <mxCell id="DeCXEWq8_Zpb-NYJ_XyL-18" style="edgeStyle=orthogonalEdgeStyle;rounded=0;orthogonalLoop=1;jettySize=auto;html=1;entryX=0;entryY=0.5;entryDx=0;entryDy=0;" parent="1" source="DeCXEWq8_Zpb-NYJ_XyL-6" target="DeCXEWq8_Zpb-NYJ_XyL-10" edge="1">
          <mxGeometry relative="1" as="geometry" />
        </mxCell>
        <mxCell id="DeCXEWq8_Zpb-NYJ_XyL-19" style="edgeStyle=orthogonalEdgeStyle;rounded=0;orthogonalLoop=1;jettySize=auto;html=1;entryX=0;entryY=0.5;entryDx=0;entryDy=0;" parent="1" source="DeCXEWq8_Zpb-NYJ_XyL-6" target="DeCXEWq8_Zpb-NYJ_XyL-12" edge="1">
          <mxGeometry relative="1" as="geometry" />
        </mxCell>
        <mxCell id="DeCXEWq8_Zpb-NYJ_XyL-6" value="CRM" style="image;aspect=fixed;html=1;points=[];align=center;fontSize=12;image=img/lib/azure2/general/Folder_Blank.svg;" parent="1" vertex="1">
          <mxGeometry x="-708.48" y="260" width="36.96" height="30" as="geometry" />
        </mxCell>
        <mxCell id="DeCXEWq8_Zpb-NYJ_XyL-26" style="edgeStyle=orthogonalEdgeStyle;rounded=0;orthogonalLoop=1;jettySize=auto;html=1;" parent="1" source="DeCXEWq8_Zpb-NYJ_XyL-7" target="DeCXEWq8_Zpb-NYJ_XyL-23" edge="1">
          <mxGeometry relative="1" as="geometry" />
        </mxCell>
        <mxCell id="DeCXEWq8_Zpb-NYJ_XyL-29" style="edgeStyle=orthogonalEdgeStyle;rounded=0;orthogonalLoop=1;jettySize=auto;html=1;entryX=0;entryY=0.5;entryDx=0;entryDy=0;" parent="1" source="DeCXEWq8_Zpb-NYJ_XyL-7" target="DeCXEWq8_Zpb-NYJ_XyL-24" edge="1">
          <mxGeometry relative="1" as="geometry" />
        </mxCell>
        <mxCell id="DeCXEWq8_Zpb-NYJ_XyL-7" value="ERP" style="image;aspect=fixed;html=1;points=[];align=center;fontSize=12;image=img/lib/azure2/general/Folder_Blank.svg;" parent="1" vertex="1">
          <mxGeometry x="-708.48" y="410" width="36.96" height="30" as="geometry" />
        </mxCell>
        <mxCell id="DeCXEWq8_Zpb-NYJ_XyL-8" value="" style="rounded=1;whiteSpace=wrap;html=1;fillColor=none;strokeColor=#d79b00;" parent="1" vertex="1">
          <mxGeometry x="-570" y="180" width="130" height="340" as="geometry" />
        </mxCell>
        <mxCell id="SN0rh_1wf0gwITNMlLb1-1" value="" style="rounded=1;whiteSpace=wrap;html=1;fillColor=none;strokeColor=#666666;fontColor=#333333;" parent="1" vertex="1">
          <mxGeometry x="-380" y="180" width="130" height="340" as="geometry" />
        </mxCell>
        <mxCell id="O7bT3XxXqjQ15Wl_2H8f-1" value="" style="rounded=1;whiteSpace=wrap;html=1;fillColor=none;strokeColor=#d6b656;" vertex="1" parent="1">
          <mxGeometry x="-150" y="180" width="130" height="340" as="geometry" />
        </mxCell>
        <mxCell id="DeCXEWq8_Zpb-NYJ_XyL-9" value="&lt;b&gt;Bronze Layer&lt;/b&gt;" style="rounded=1;whiteSpace=wrap;html=1;fillColor=#ffe6cc;strokeColor=#d79b00;" parent="1" vertex="1">
          <mxGeometry x="-570" y="140" width="130" height="30" as="geometry" />
        </mxCell>
        <mxCell id="SN0rh_1wf0gwITNMlLb1-2" value="&lt;b&gt;Silver Layer&lt;/b&gt;" style="rounded=1;whiteSpace=wrap;html=1;fillColor=#f5f5f5;strokeColor=#666666;fontColor=#333333;" parent="1" vertex="1">
          <mxGeometry x="-380" y="140" width="130" height="30" as="geometry" />
        </mxCell>
        <mxCell id="O7bT3XxXqjQ15Wl_2H8f-2" value="&lt;b&gt;Gold Layer&lt;/b&gt;" style="rounded=1;whiteSpace=wrap;html=1;fillColor=#fff2cc;strokeColor=#d6b656;" vertex="1" parent="1">
          <mxGeometry x="-150" y="140" width="130" height="30" as="geometry" />
        </mxCell>
        <mxCell id="SN0rh_1wf0gwITNMlLb1-9" style="edgeStyle=orthogonalEdgeStyle;rounded=0;orthogonalLoop=1;jettySize=auto;html=1;entryX=0;entryY=0.5;entryDx=0;entryDy=0;" parent="1" source="DeCXEWq8_Zpb-NYJ_XyL-10" target="SN0rh_1wf0gwITNMlLb1-3" edge="1">
          <mxGeometry relative="1" as="geometry" />
        </mxCell>
        <mxCell id="DeCXEWq8_Zpb-NYJ_XyL-10" value="crm_sales_details" style="rounded=1;whiteSpace=wrap;html=1;fillColor=#ffe6cc;strokeColor=#d79b00;" parent="1" vertex="1">
          <mxGeometry x="-563.12" y="220" width="116.25" height="30" as="geometry" />
        </mxCell>
        <mxCell id="O7bT3XxXqjQ15Wl_2H8f-10" style="edgeStyle=orthogonalEdgeStyle;rounded=0;orthogonalLoop=1;jettySize=auto;html=1;entryX=0;entryY=0.5;entryDx=0;entryDy=0;" edge="1" parent="1" source="SN0rh_1wf0gwITNMlLb1-3" target="O7bT3XxXqjQ15Wl_2H8f-3">
          <mxGeometry relative="1" as="geometry" />
        </mxCell>
        <mxCell id="SN0rh_1wf0gwITNMlLb1-3" value="crm_sales_details" style="rounded=1;whiteSpace=wrap;html=1;fillColor=#f5f5f5;strokeColor=#666666;fontColor=#333333;" parent="1" vertex="1">
          <mxGeometry x="-373.12" y="220" width="116.25" height="30" as="geometry" />
        </mxCell>
        <mxCell id="O7bT3XxXqjQ15Wl_2H8f-3" value="fact_sales" style="rounded=1;whiteSpace=wrap;html=1;fillColor=#fff2cc;strokeColor=#d6b656;" vertex="1" parent="1">
          <mxGeometry x="-143.12" y="220" width="116.25" height="30" as="geometry" />
        </mxCell>
        <mxCell id="SN0rh_1wf0gwITNMlLb1-11" style="edgeStyle=orthogonalEdgeStyle;rounded=0;orthogonalLoop=1;jettySize=auto;html=1;entryX=0;entryY=0.5;entryDx=0;entryDy=0;" parent="1" source="DeCXEWq8_Zpb-NYJ_XyL-11" target="SN0rh_1wf0gwITNMlLb1-4" edge="1">
          <mxGeometry relative="1" as="geometry" />
        </mxCell>
        <mxCell id="DeCXEWq8_Zpb-NYJ_XyL-11" value="crm_cust_info" style="rounded=1;whiteSpace=wrap;html=1;fillColor=#ffe6cc;strokeColor=#d79b00;" parent="1" vertex="1">
          <mxGeometry x="-563.12" y="260" width="116.25" height="30" as="geometry" />
        </mxCell>
        <mxCell id="O7bT3XxXqjQ15Wl_2H8f-11" style="rounded=0;orthogonalLoop=1;jettySize=auto;html=1;entryX=0;entryY=0.5;entryDx=0;entryDy=0;exitX=1;exitY=0.5;exitDx=0;exitDy=0;jumpStyle=gap;" edge="1" parent="1" source="SN0rh_1wf0gwITNMlLb1-4" target="O7bT3XxXqjQ15Wl_2H8f-4">
          <mxGeometry relative="1" as="geometry" />
        </mxCell>
        <mxCell id="SN0rh_1wf0gwITNMlLb1-4" value="crm_cust_info" style="rounded=1;whiteSpace=wrap;html=1;fillColor=#f5f5f5;strokeColor=#666666;fontColor=#333333;" parent="1" vertex="1">
          <mxGeometry x="-373.12" y="260" width="116.25" height="30" as="geometry" />
        </mxCell>
        <mxCell id="O7bT3XxXqjQ15Wl_2H8f-4" value="dim_customers" style="rounded=1;whiteSpace=wrap;html=1;fillColor=#fff2cc;strokeColor=#d6b656;" vertex="1" parent="1">
          <mxGeometry x="-143.12" y="315" width="116.25" height="30" as="geometry" />
        </mxCell>
        <mxCell id="SN0rh_1wf0gwITNMlLb1-12" style="edgeStyle=orthogonalEdgeStyle;rounded=0;orthogonalLoop=1;jettySize=auto;html=1;entryX=0;entryY=0.5;entryDx=0;entryDy=0;" parent="1" source="DeCXEWq8_Zpb-NYJ_XyL-12" target="SN0rh_1wf0gwITNMlLb1-5" edge="1">
          <mxGeometry relative="1" as="geometry" />
        </mxCell>
        <mxCell id="DeCXEWq8_Zpb-NYJ_XyL-12" value="crm_prd_info" style="rounded=1;whiteSpace=wrap;html=1;fillColor=#ffe6cc;strokeColor=#d79b00;" parent="1" vertex="1">
          <mxGeometry x="-563.12" y="300" width="116.25" height="30" as="geometry" />
        </mxCell>
        <mxCell id="O7bT3XxXqjQ15Wl_2H8f-14" style="rounded=0;orthogonalLoop=1;jettySize=auto;html=1;entryX=0;entryY=0.5;entryDx=0;entryDy=0;exitX=1;exitY=0.5;exitDx=0;exitDy=0;jumpStyle=gap;" edge="1" parent="1" source="SN0rh_1wf0gwITNMlLb1-5" target="O7bT3XxXqjQ15Wl_2H8f-5">
          <mxGeometry relative="1" as="geometry" />
        </mxCell>
        <mxCell id="SN0rh_1wf0gwITNMlLb1-5" value="crm_prd_info" style="rounded=1;whiteSpace=wrap;html=1;fillColor=#f5f5f5;strokeColor=#666666;fontColor=#333333;" parent="1" vertex="1">
          <mxGeometry x="-373.12" y="300" width="116.25" height="30" as="geometry" />
        </mxCell>
        <mxCell id="O7bT3XxXqjQ15Wl_2H8f-5" value="dim_products" style="rounded=1;whiteSpace=wrap;html=1;fillColor=#fff2cc;strokeColor=#d6b656;" vertex="1" parent="1">
          <mxGeometry x="-143.12" y="400" width="116.25" height="30" as="geometry" />
        </mxCell>
        <mxCell id="DeCXEWq8_Zpb-NYJ_XyL-16" style="edgeStyle=orthogonalEdgeStyle;rounded=0;orthogonalLoop=1;jettySize=auto;html=1;entryX=0.077;entryY=0.279;entryDx=0;entryDy=0;entryPerimeter=0;" parent="1" source="DeCXEWq8_Zpb-NYJ_XyL-6" target="DeCXEWq8_Zpb-NYJ_XyL-8" edge="1">
          <mxGeometry relative="1" as="geometry" />
        </mxCell>
        <mxCell id="DeCXEWq8_Zpb-NYJ_XyL-23" value="erp_loc_a101" style="rounded=1;whiteSpace=wrap;html=1;fillColor=#ffe6cc;strokeColor=#d79b00;" parent="1" vertex="1">
          <mxGeometry x="-563.13" y="410" width="116.25" height="30" as="geometry" />
        </mxCell>
        <mxCell id="O7bT3XxXqjQ15Wl_2H8f-13" style="rounded=0;orthogonalLoop=1;jettySize=auto;html=1;exitX=1;exitY=0.5;exitDx=0;exitDy=0;entryX=0;entryY=0.5;entryDx=0;entryDy=0;jumpStyle=gap;" edge="1" parent="1" source="SN0rh_1wf0gwITNMlLb1-6" target="O7bT3XxXqjQ15Wl_2H8f-4">
          <mxGeometry relative="1" as="geometry">
            <mxPoint x="-150" y="330" as="targetPoint" />
          </mxGeometry>
        </mxCell>
        <mxCell id="SN0rh_1wf0gwITNMlLb1-6" value="erp_loc_a101" style="rounded=1;whiteSpace=wrap;html=1;fillColor=#f5f5f5;strokeColor=#666666;fontColor=#333333;" parent="1" vertex="1">
          <mxGeometry x="-373.13" y="410" width="116.25" height="30" as="geometry" />
        </mxCell>
        <mxCell id="SN0rh_1wf0gwITNMlLb1-13" style="edgeStyle=orthogonalEdgeStyle;rounded=0;orthogonalLoop=1;jettySize=auto;html=1;entryX=0;entryY=0.5;entryDx=0;entryDy=0;" parent="1" source="DeCXEWq8_Zpb-NYJ_XyL-24" target="SN0rh_1wf0gwITNMlLb1-7" edge="1">
          <mxGeometry relative="1" as="geometry" />
        </mxCell>
        <mxCell id="DeCXEWq8_Zpb-NYJ_XyL-24" value="erp_cust_az12" style="rounded=1;whiteSpace=wrap;html=1;fillColor=#ffe6cc;strokeColor=#d79b00;" parent="1" vertex="1">
          <mxGeometry x="-563.13" y="370" width="116.25" height="30" as="geometry" />
        </mxCell>
        <mxCell id="O7bT3XxXqjQ15Wl_2H8f-12" style="rounded=0;orthogonalLoop=1;jettySize=auto;html=1;exitX=1;exitY=0.5;exitDx=0;exitDy=0;entryX=0;entryY=0.5;entryDx=0;entryDy=0;jumpStyle=gap;" edge="1" parent="1" source="SN0rh_1wf0gwITNMlLb1-7" target="O7bT3XxXqjQ15Wl_2H8f-4">
          <mxGeometry relative="1" as="geometry">
            <mxPoint x="-150" y="330" as="targetPoint" />
          </mxGeometry>
        </mxCell>
        <mxCell id="SN0rh_1wf0gwITNMlLb1-7" value="erp_cust_az12" style="rounded=1;whiteSpace=wrap;html=1;fillColor=#f5f5f5;strokeColor=#666666;fontColor=#333333;" parent="1" vertex="1">
          <mxGeometry x="-373.13" y="370" width="116.25" height="30" as="geometry" />
        </mxCell>
        <mxCell id="SN0rh_1wf0gwITNMlLb1-15" style="edgeStyle=orthogonalEdgeStyle;rounded=0;orthogonalLoop=1;jettySize=auto;html=1;entryX=0;entryY=0.5;entryDx=0;entryDy=0;" parent="1" source="DeCXEWq8_Zpb-NYJ_XyL-25" target="SN0rh_1wf0gwITNMlLb1-8" edge="1">
          <mxGeometry relative="1" as="geometry" />
        </mxCell>
        <mxCell id="DeCXEWq8_Zpb-NYJ_XyL-25" value="erp_px_cat_g1v2" style="rounded=1;whiteSpace=wrap;html=1;fillColor=#ffe6cc;strokeColor=#d79b00;" parent="1" vertex="1">
          <mxGeometry x="-563.13" y="450" width="116.25" height="30" as="geometry" />
        </mxCell>
        <mxCell id="SN0rh_1wf0gwITNMlLb1-8" value="erp_px_cat_g1v2" style="rounded=1;whiteSpace=wrap;html=1;fillColor=#f5f5f5;strokeColor=#666666;fontColor=#333333;" parent="1" vertex="1">
          <mxGeometry x="-373.13" y="450" width="116.25" height="30" as="geometry" />
        </mxCell>
        <mxCell id="DeCXEWq8_Zpb-NYJ_XyL-28" style="edgeStyle=orthogonalEdgeStyle;rounded=0;orthogonalLoop=1;jettySize=auto;html=1;entryX=0;entryY=0.5;entryDx=0;entryDy=0;" parent="1" source="DeCXEWq8_Zpb-NYJ_XyL-7" target="DeCXEWq8_Zpb-NYJ_XyL-25" edge="1">
          <mxGeometry relative="1" as="geometry" />
        </mxCell>
        <mxCell id="SN0rh_1wf0gwITNMlLb1-14" style="edgeStyle=orthogonalEdgeStyle;rounded=0;orthogonalLoop=1;jettySize=auto;html=1;entryX=0.077;entryY=0.721;entryDx=0;entryDy=0;entryPerimeter=0;" parent="1" source="DeCXEWq8_Zpb-NYJ_XyL-23" target="SN0rh_1wf0gwITNMlLb1-1" edge="1">
          <mxGeometry relative="1" as="geometry" />
        </mxCell>
        <mxCell id="O7bT3XxXqjQ15Wl_2H8f-15" style="rounded=0;orthogonalLoop=1;jettySize=auto;html=1;entryX=0;entryY=0.5;entryDx=0;entryDy=0;exitX=1;exitY=0.5;exitDx=0;exitDy=0;jumpStyle=gap;" edge="1" parent="1" source="SN0rh_1wf0gwITNMlLb1-8" target="O7bT3XxXqjQ15Wl_2H8f-5">
          <mxGeometry relative="1" as="geometry" />
        </mxCell>
      </root>
    </mxGraphModel>
  </diagram>
</mxfile>
